<?xml version="1.0" encoding="UTF-8" standalone="no"?>
<!-- Created with Inkscape (http://www.inkscape.org/) -->

<svg
   version="1.1"
   id="svg1"
   width="720"
   height="720"
   viewBox="0 0 720 720"
   xmlns="http://www.w3.org/2000/svg"
   xmlns:svg="http://www.w3.org/2000/svg">
  <defs
     id="defs1" />
  <g
     id="g1">
    <path
       style="fill:#ff0066;fill-opacity:1;stroke-width:1.12992"
       d="m 361.11174,718.7526 c -0.73454,-0.7274 -1.33553,-1.72151 -1.33553,-2.20916 0,-0.48763 -3.5099,-8.10264 -7.79977,-16.92224 -24.25705,-49.87032 -24.0882,-49.47232 -22.79012,-53.71402 1.47822,-4.83026 9.82299,-36.50885 11.84473,-44.96516 0.8132,-3.40133 2.89113,-11.37783 4.61764,-17.72559 3.54916,-13.04904 4.08298,-10.40695 -5.59968,-27.71514 l -5.60658,-10.02208 3.90413,-3.47075 c 2.14729,-1.90892 8.13602,-7.26562 13.30831,-11.90378 5.17227,-4.63816 9.83888,-8.58746 10.37025,-8.77623 0.53134,-0.18876 6.24646,4.55542 12.70025,10.54264 6.45379,5.98719 12.41152,11.5108 13.23942,12.27465 1.23596,1.14038 0.46292,3.24767 -4.32162,11.78046 -3.20475,5.7154 -6.40714,11.31181 -7.1164,12.43645 -0.97175,1.54087 -0.93838,3.10563 0.13542,6.34918 1.38656,4.18819 9.92468,32.40799 11.16804,36.91201 0.34144,1.23684 2.85524,9.76067 5.58622,18.94185 2.731,9.18118 4.96544,17.73744 4.96544,19.01389 0,2.41735 -29.02125,60.99751 -31.50905,63.60186 -0.78063,0.81719 -1.41933,2.14669 -1.41933,2.95442 0,2.45809 -2.79866,4.14482 -4.34177,2.61674 z M 248.11905,687.80208 c -1.07147,-8.50329 -2.6509,-20.26735 -3.50987,-26.14236 -3.86605,-26.44218 -4.48377,-34.76917 -2.81777,-37.98488 0.87072,-1.68069 7.38161,-12.16344 14.46863,-23.29502 16.78573,-26.36533 17.86967,-28.03965 23.20442,-35.84289 5.09322,-7.44993 5.10991,-7.92689 0.92934,-26.56143 -2.14089,-9.54275 -2.1314,-11.24403 0.0626,-11.24403 0.64019,0 7.72045,-3.03588 15.73391,-6.74641 8.01344,-3.71053 15.11347,-6.74641 15.77783,-6.74641 0.66436,0 2.27891,1.89743 3.58789,4.21651 8.68763,15.39168 11.46525,20.40488 13.19411,23.81348 l 1.95544,3.85535 -10.161,9.48861 -10.16101,9.48861 -1.17613,41.50251 -1.17612,41.50249 -28.33736,28.0782 c -15.58555,15.44301 -28.62751,28.07819 -28.98212,28.07819 -0.35461,0 -1.5214,-6.95723 -2.59287,-15.46052 z m 218.5465,7.86179 c -3.97349,-4.16938 -15.72553,-16.37092 -26.11562,-27.11451 -10.39009,-10.74361 -19.21409,-20.10426 -19.60888,-20.80144 -0.80536,-1.42227 -2.55339,-23.26621 -4.4204,-55.23892 -1.54708,-26.49366 -1.81068,-28.24536 -4.5348,-30.13482 -3.64561,-2.52862 -18.1458,-16.48493 -18.1458,-17.46517 0,-0.85927 4.00518,-8.22068 9.2782,-17.05313 1.29221,-2.16448 3.61897,-6.33882 5.17058,-9.27632 1.55163,-2.9375 3.25915,-5.34091 3.79452,-5.34091 0.53535,0 7.25199,2.96779 14.92586,6.59509 7.67387,3.6273 14.84666,6.90029 15.93954,7.27332 2.6393,0.90086 2.56019,5.65265 -0.28386,17.05265 -1.23426,4.94737 -2.25014,9.88441 -2.25751,10.97121 -0.007,1.08678 2.88752,6.14659 6.43311,11.24402 3.54559,5.09742 10.1039,14.59046 14.57401,21.09565 4.47011,6.50519 12.20495,17.65592 17.18852,24.77939 l 9.06105,12.95178 -3.1766,19.07229 c -1.74714,10.48975 -3.94114,24.78731 -4.87559,31.77232 -2.35149,17.57748 -4.11846,27.21786 -4.98676,27.20722 -0.40428,-0.004 -3.98608,-3.42034 -7.95957,-7.58972 z M 150.27133,646.7614 c 0.42274,-3.24671 1.22258,-7.67404 1.77745,-9.83851 1.38361,-5.39741 6.34109,-31.89324 8.49318,-45.39295 0.97313,-6.10427 2.38433,-12.496 3.13597,-14.20385 0.75166,-1.70783 4.94335,-6.05737 9.31488,-9.66563 4.37152,-3.60825 8.2037,-6.83303 8.51596,-7.16618 0.31224,-0.33316 2.35608,-1.93694 4.54184,-3.56396 2.18576,-1.62702 5.06914,-3.90106 6.40748,-5.05341 1.33834,-1.15236 7.19413,-5.89005 13.01286,-10.52821 5.81874,-4.63815 13.2153,-10.84709 16.43679,-13.79764 l 5.85728,-5.36462 1.47107,-12.62581 c 0.80909,-6.94419 1.47219,-13.25829 1.47355,-14.03131 0.001,-0.77303 0.55598,-1.44161 1.23254,-1.48575 0.67655,-0.0441 8.89445,-0.97741 18.26201,-2.07396 9.36754,-1.09656 17.44464,-1.63841 17.94908,-1.20411 0.50445,0.43428 1.61237,4.78295 2.46209,9.66368 0.8497,4.88074 2.11061,11.90995 2.802,15.62047 0.69139,3.71053 1.37181,7.64063 1.51202,8.73355 0.19426,1.51407 -2.35028,3.12015 -10.68852,6.74641 -6.01891,2.61761 -11.96839,5.51826 -13.22106,6.44589 -1.38218,1.02353 -4.29557,7.43323 -7.41054,16.30383 -2.82314,8.03947 -7.01141,19.67704 -9.30727,25.86125 -2.29584,6.18421 -5.9724,16.46237 -8.17012,22.84035 -2.1977,6.37799 -4.93363,12.44976 -6.07984,13.49283 -1.1462,1.04307 -10.92603,6.35646 -21.73296,11.80755 -10.80693,5.45109 -26.0261,13.1673 -33.82038,17.14713 -7.79427,3.97984 -14.35693,7.23607 -14.58367,7.23607 -0.22676,0 -0.0665,-2.6564 0.35631,-5.90311 z m 414.45566,0.15412 c -5.62054,-3.11601 -14.81778,-8.00013 -20.4383,-10.85361 -5.62054,-2.85347 -12.00752,-6.27235 -14.19328,-7.59751 -2.18576,-1.32516 -8.61055,-4.83441 -14.27733,-7.79833 l -10.30321,-5.38898 -6.01105,-15.88165 c -3.30608,-8.73492 -7.19521,-18.66455 -8.64252,-22.06587 -1.4473,-3.40131 -5.43145,-13.26558 -8.85368,-21.9206 -3.42223,-8.65502 -6.90416,-16.11239 -7.73761,-16.57193 -0.83347,-0.45955 -6.92872,-3.30145 -13.545,-6.31534 l -12.02959,-5.47981 2.19692,-11.11812 c 1.2083,-6.11498 3.00552,-14.32627 3.99381,-18.24732 1.73316,-6.87627 1.90761,-7.10725 4.91767,-6.51111 1.71644,0.33994 9.93115,1.22863 18.25495,1.97488 8.32377,0.74624 15.24235,1.42214 15.37459,1.50199 0.13222,0.0799 1.01782,6.44714 1.96797,14.14952 1.67593,13.58595 1.84165,14.10512 5.54729,17.37754 3.66508,3.23663 32.76976,25.69977 39.33488,30.35886 11.02431,7.82368 21.89944,16.86634 22.77717,18.93919 0.56463,1.33346 3.06142,14.82098 5.54841,29.97231 6.44924,39.29035 7.22784,44.58369 6.75676,45.93627 -0.23535,0.67577 -4.90841,-1.28344 -10.63885,-4.46038 z M 70.796597,570.44682 c 0.444877,-1.47106 1.626427,-3.93962 2.625662,-5.48567 0.999224,-1.54606 3.863456,-6.60587 6.364962,-11.24402 2.501506,-4.63816 5.946926,-10.96292 7.656482,-14.05503 1.709566,-3.0921 4.779637,-8.91089 6.822388,-12.93063 2.04274,-4.01974 4.010551,-7.5616 4.372916,-7.87081 0.362365,-0.30921 2.363523,-3.85436 4.447023,-7.87809 l 3.7882,-7.31591 20.00149,-7.68838 c 11.00081,-4.22861 22.30079,-8.60884 25.11105,-9.73385 2.81026,-1.12501 10.73011,-4.17731 17.59966,-6.7829 6.86954,-2.60558 13.06366,-5.30581 13.76472,-6.00049 0.70105,-0.69469 3.7668,-6.74119 6.81276,-13.43667 l 5.53812,-12.17361 4.54185,0.57855 c 5.44592,0.69369 30.16516,5.1043 31.83585,5.68039 0.78471,0.2706 0.39755,6.55267 -1.15898,18.80473 l -2.33735,18.39838 -13.48146,1.90945 c -7.41478,1.0502 -14.11536,2.15035 -14.89018,2.44477 -0.77481,0.29443 -5.93864,6.39423 -11.47519,13.55511 -5.53656,7.16088 -12.36576,15.96679 -15.17604,19.56871 -2.81026,3.60191 -9.12711,11.82229 -14.03746,18.26751 -4.91033,6.44522 -9.30539,12.12417 -9.76678,12.6199 -0.8018,0.86146 -59.241942,10.96414 -73.116749,12.63986 -6.619783,0.79951 -6.647921,0.79048 -5.842944,-1.8713 z m 570.574073,0.55429 c -4.68378,-0.88899 -17.7132,-3.36153 -28.9543,-5.49453 -11.24108,-2.13299 -22.48214,-4.13061 -24.98016,-4.43917 -8.09106,-0.99938 -10.47306,-1.80517 -11.49074,-3.8871 -0.91674,-1.87543 -7.57401,-10.09857 -11.86887,-14.66057 -1.64897,-1.75155 -28.62739,-34.41679 -35.11665,-42.51895 -2.72341,-3.40032 -3.39951,-3.61436 -16.6541,-5.27239 -7.59852,-0.95049 -14.49729,-1.98726 -15.33064,-2.30393 -0.92895,-0.35301 -1.64724,-2.8546 -1.85652,-6.46573 -0.18774,-3.23947 -0.97327,-11.36536 -1.74561,-18.05752 -0.77233,-6.69217 -1.12882,-12.32656 -0.79219,-12.52086 0.61597,-0.35556 13.42914,-2.76114 27.50294,-5.1635 4.17342,-0.71238 8.07046,-1 8.66009,-0.63915 0.58963,0.36086 2.21092,3.43479 3.60288,6.83097 1.39197,3.39618 3.91984,8.84408 5.61749,12.10649 2.86346,5.5027 3.61422,6.12172 10.38282,8.56089 18.03568,6.4994 36.66982,13.07952 48.1728,17.01083 25.43892,8.69411 22.27302,6.56299 28.96442,19.49791 3.26058,6.30303 11.0344,21.3267 17.27502,33.38591 6.2406,12.05921 11.80232,22.40653 12.35938,22.99402 3.10072,3.27002 -0.5356,3.54415 -13.74806,1.03638 z M 352.46982,508.22068 c -7.78606,-7.17811 -8.80801,-8.54659 -7.52534,-10.07708 0.81634,-0.97404 2.05305,-1.77098 2.74824,-1.77098 1.83812,0 13.21895,-5.84562 13.21895,-6.78973 0,-1.07171 -6.0033,-2.20238 -11.78042,-2.21877 -2.57607,-0.006 -8.77144,-1.01328 -13.76746,-2.23553 -4.99604,-1.22223 -9.46692,-2.22821 -9.9353,-2.23551 -2.33998,-0.0365 -0.22617,3.48618 5.3844,8.97308 3.42979,3.35419 5.85685,6.46234 5.39345,6.90697 -1.02989,0.98817 -22.12903,10.07588 -22.48552,9.68485 -0.13997,-0.15353 -1.25285,-2.05008 -2.47305,-4.21455 -1.22022,-2.16447 -3.90691,-6.8943 -5.97043,-10.51074 -4.19858,-7.35823 -3.77303,-8.4486 3.40311,-8.7199 5.79092,-0.21895 10.54255,-1.40115 10.99025,-2.73435 0.2149,-0.63996 -3.71619,-3.06287 -8.73574,-5.38426 -5.01956,-2.32138 -11.51251,-5.71914 -14.42875,-7.55056 -9.16047,-5.75281 -10.37207,-4.18503 -4.78223,6.18806 3.92515,7.28393 3.69801,9.68948 -0.89916,9.52225 -1.73273,-0.0631 -6.65322,0.48184 -10.93443,1.21082 -4.85106,0.82601 -8.18568,0.92769 -8.85001,0.26984 -1.23238,-1.22038 -5.96934,-23.81147 -5.16075,-24.61219 0.29683,-0.29393 4.55565,0.22045 9.46405,1.14306 4.90838,0.92262 9.30489,1.30829 9.76998,0.85707 0.46509,-0.45122 -2.72636,-4.24646 -7.09212,-8.43387 -4.36576,-4.1874 -10.0636,-10.11004 -12.66184,-13.16141 -2.59827,-3.05136 -5.15509,-5.54794 -5.68185,-5.54794 -1.41221,0 -1.09425,6.40768 0.68351,13.77392 1.42256,5.89448 1.39392,6.46552 -0.32431,6.4676 -3.14973,0.003 -21.20666,-3.46925 -22.65933,-4.3583 -1.01517,-0.62131 -1.09144,-2.94655 -0.30111,-9.1795 0.78522,-6.19264 0.71101,-8.56621 -0.28749,-9.19497 -1.7349,-1.09245 -35.04625,-1.112 -36.54524,-0.0215 -0.62451,0.45435 -2.02137,2.72352 -3.10415,5.0426 -2.33169,4.99398 -2.99847,5.06898 -17.27664,1.94337 -5.5889,-1.22346 -11.20942,-2.19585 -12.49006,-2.16086 -1.28065,0.035 -6.92708,3.3262 -12.5476,7.31381 -5.62054,3.9876 -14.70772,10.15726 -20.19376,13.71031 -5.48602,3.55307 -15.96066,10.66665 -23.27696,15.80798 -12.356581,8.68326 -13.625269,9.30985 -17.8442,8.81316 -6.310684,-0.74293 -41.273305,-5.92099 -59.043991,-8.74457 -8.118549,-1.28995 -15.143002,-2.69549 -15.609892,-3.12344 -0.46689,-0.42795 4.131728,-5.39073 10.219153,-11.02841 21.490719,-19.90294 26.584921,-25.06455 26.115498,-26.46104 -0.358363,-1.06607 -6.908124,-1.48504 -26.779891,-1.71304 l -26.3055177,-0.30179 0.016802,-4.19579 C 2.1317108,426.86117 3.676801,413.3355 5.555717,399.11182 7.4346331,384.88813 9.2645769,370.97366 9.6222811,368.19076 10.000719,365.24647 8.8231996,351.84814 6.8059509,336.1453 4.8992835,321.30319 2.9882911,304.98531 2.5593028,299.88333 L 1.7793312,290.60701 H 19.010151 c 20.442472,0 20.980533,-0.36675 13.569366,-9.24937 -2.721236,-3.26154 -6.03961,-7.48326 -7.374152,-9.38161 -2.973297,-4.2294 -10.609456,-19.11452 -10.609456,-20.68092 0,-1.9864 9.284304,-7.0481 20.438304,-11.14275 10.679151,-3.92032 10.968342,-3.95987 28.954267,-3.9592 17.380195,6.5e-4 18.634771,0.15521 28.954263,3.56743 13.367697,4.42014 25.435477,11.16287 36.821667,20.57368 30.54567,25.24633 33.17145,26.38501 60.54415,26.25525 12.88294,-0.061 17.31578,0.26795 17.31578,1.28521 0,2.29557 2.98993,2.73228 18.7065,2.73228 17.05538,0 16.4928,0.30996 16.4928,-9.08718 0,-4.50808 0.36723,-5.53443 1.98706,-5.55375 1.09288,-0.013 5.43602,-1.22912 9.65142,-2.7024 5.37857,-1.87978 7.66438,-2.26452 7.66438,-1.29003 0,0.76373 -1.07848,4.79102 -2.39661,8.94952 -1.31815,4.1585 -2.08381,7.87066 -1.7015,8.24927 1.38444,1.37094 7.02171,-2.67682 15.68642,-11.26345 4.86329,-4.81945 9.61979,-10.25142 10.57001,-12.07104 1.02501,-1.96286 2.98922,-3.6021 4.82953,-4.03052 5.65526,-1.31651 23.64161,-10.34531 27.23995,-13.67392 3.32196,-3.07295 4.29986,-3.32001 15.81702,-3.99594 8.54255,-0.50136 14.62416,-1.54143 19.99659,-3.41983 7.62539,-2.66611 7.78621,-2.67472 13.0578,-0.69921 5.86716,2.19869 24.51817,4.52166 29.19538,3.63627 2.10803,-0.39905 4.36978,0.44446 7.87434,2.93674 6.3243,4.49753 22.59199,12.29182 27.59409,13.22108 2.13013,0.39572 4.15923,1.54107 4.50916,2.54522 1.02946,2.95435 24.54517,24.82988 26.71742,24.85395 2.43523,0.027 2.46256,0.65903 -0.36338,-8.40122 -1.29274,-4.14464 -2.14495,-7.7392 -1.8938,-7.9879 0.25114,-0.2487 4.87612,0.93866 10.27773,2.63858 l 9.8211,3.09073 0.021,7.02752 0.0209,7.02751 h 16.41996 c 14.47744,0 16.66027,-0.24572 18.45124,-2.07709 1.84166,-1.88319 3.03835,-1.98392 12.81818,-1.079 12.90118,1.19372 27.14633,-0.35129 34.27801,-3.71774 8.79811,-4.15311 10.5785,-5.31451 18.25773,-11.91017 24.12773,-20.72318 30.00161,-25.42328 34.75059,-27.80636 24.3359,-12.21179 48.68302,-13.70535 71.96202,-4.4145 11.25016,4.49004 21.29002,10.04739 21.29002,11.78461 0,1.65918 -5.60918,12.25239 -9.45522,17.85661 -1.90984,2.7829 -6.48972,8.1903 -10.1777,12.01644 -3.68786,3.82615 -6.36948,7.49451 -5.95924,8.15192 0.47792,0.76568 7.45556,1.19528 19.41412,1.19528 h 18.66812 v 7.12109 c 0,3.9166 -0.48734,9.86187 -1.0829,13.21173 -0.59554,3.34985 -2.22629,16.05615 -3.62382,28.23622 l -2.54094,22.14561 2.51664,21.14388 c 2.30783,19.38865 4.69764,44.17819 4.72126,48.97284 0.0114,1.81167 -1.87578,1.9677 -23.76794,1.9677 -16.29274,0 -24.02454,0.39551 -24.56184,1.25643 -0.64562,1.03454 10.43898,12.73198 33.9479,35.82447 1.33622,1.31256 1.64324,2.29851 0.86444,2.77519 -1.4199,0.86902 -70.29824,9.6176 -75.72018,9.6176 -2.03406,0 -4.37346,-0.65488 -5.19871,-1.45531 -0.82525,-0.80041 -4.82163,-3.43376 -8.88089,-5.85187 -4.05929,-2.41809 -13.76749,-8.48477 -21.57379,-13.48151 -7.8063,-4.99674 -18.96426,-12.05019 -24.7955,-15.67431 l -10.60223,-6.58932 -8.13289,1.38456 c -4.47308,0.76149 -10.62297,2.09085 -13.66643,2.95411 -3.04347,0.86327 -6.03936,1.26003 -6.65757,0.88168 -0.61821,-0.37835 -2.08769,-2.84526 -3.26553,-5.48205 -1.17785,-2.63676 -2.95008,-5.10137 -3.93832,-5.4769 -0.98823,-0.37552 -9.3647,-0.68277 -18.61437,-0.68277 -12.42628,0 -16.95014,0.367 -17.32531,1.4055 -0.27927,0.77303 -0.1387,5.20036 0.31235,9.83853 0.86897,8.93536 0.39905,10.06997 -4.1841,10.10239 -1.33833,0.01 -6.35976,0.82132 -11.15872,1.80409 -4.79897,0.98279 -8.94588,1.56856 -9.21533,1.30173 -0.7733,-0.76576 2.9857,-19.27215 4.15593,-20.46061 1.56487,-1.58923 1.27452,-2.86722 -0.65138,-2.86722 -0.93676,0 -1.7032,0.50597 -1.7032,1.1244 0,0.61842 -0.67455,1.1244 -1.49899,1.1244 -0.82445,0 -2.97685,1.89743 -4.78312,4.2165 -1.80625,2.31908 -7.5101,8.31368 -12.67521,13.32135 -9.77443,9.47648 -20.61713,16.5457 -36.08158,23.52442 -5.19459,2.3442 -8.47073,4.42726 -7.87103,5.00459 0.85104,0.81931 15.99744,3.40683 19.9423,3.40683 0.63305,0 -0.78105,3.41537 -3.14248,7.58972 -2.36142,4.17433 -5.01636,9.01838 -5.89987,10.76453 -0.8835,1.74617 -2.23243,3.41275 -2.99759,3.7035 -0.76516,0.29077 -6.44455,-1.79391 -12.62085,-4.6326 l -11.22963,-5.16127 7.06837,-6.57846 c 3.88762,-3.61817 7.06838,-7.19187 7.06838,-7.94157 0,-1.5854 -4.00852,-1.1752 -14.19326,1.4524 -5.72979,1.47825 -15.74325,2.84941 -21.99666,3.01203 -2.99765,0.078 0.93399,3.17553 8.45322,6.65993 4.01411,1.86012 7.2984,3.71367 7.2984,4.11897 0,0.84018 -17.29918,17.30916 -18.16738,17.2955 -0.31226,-0.004 -4.62205,-3.74667 -9.57731,-8.315 z M 73.298592,424.12978 c 0.68768,-2.00986 2.119711,-6.69019 3.182316,-10.40071 1.062594,-3.71053 3.554784,-11.30025 5.538206,-16.86604 l 3.606201,-10.11961 27.971385,-0.30053 27.97136,-0.30053 3.02068,9.29574 c 1.66139,5.11267 3.47497,10.30771 4.03019,11.54455 0.98581,2.19605 3.61756,11.52934 4.99356,17.70933 l 0.68846,3.09211 h 11.26598 c 6.19628,0 11.56222,-0.47469 11.92432,-1.05488 0.58556,-0.9382 -10.53213,-32.00253 -14.66845,-40.98561 -0.88581,-1.92379 -2.95239,-6.78667 -4.59238,-10.80641 -1.64,-4.01974 -3.97122,-9.45352 -5.18047,-12.07507 -1.20925,-2.62155 -2.19864,-5.21257 -2.19864,-5.75785 0,-0.99161 -6.13214,-15.84999 -8.06596,-19.54408 -0.89343,-1.70669 -9.90984,-25.58771 -13.90671,-36.83354 l -1.39868,-3.93541 H 115.25384 103.0277 l -3.178898,8.99522 c -1.748393,4.94737 -5.09518,13.54905 -7.437308,19.11484 -2.342119,5.56579 -6.529285,15.68541 -9.304816,22.48804 -2.775542,6.80264 -6.551957,15.53215 -8.392049,19.39894 -1.840082,3.86678 -3.345617,7.29577 -3.345617,7.61998 0,0.32421 -4.033702,10.06299 -8.963773,21.64174 -9.19542,21.5963 -11.835028,29.12241 -10.797216,30.78527 0.325696,0.52185 5.057992,0.94882 10.516214,0.94882 h 9.924033 z m 18.857199,-56.2201 c 0.337268,-1.39144 4.139269,-11.13158 8.448889,-21.64474 4.30961,-10.51316 8.79565,-21.77914 9.96898,-25.0355 1.17332,-3.25637 2.60282,-5.7657 3.17665,-5.57629 0.57384,0.18943 2.98505,5.63662 5.35825,12.10488 4.79417,13.06672 7.07508,18.93187 12.29871,31.62485 1.95116,4.74117 3.54758,9.1685 3.54758,9.83851 0,0.83218 -6.87823,1.21819 -21.70614,1.21819 H 91.542583 Z m 123.416819,27.6884 v -32.186 l 3.48328,0.68986 c 8.28297,1.64047 27.57817,22.90845 46.80895,51.59483 l 8.10309,12.08732 h 11.80205 11.80204 l -0.78067,-3.09211 c -0.42936,-1.70065 -2.29797,-5.11602 -4.15245,-7.58971 -1.85448,-2.47368 -5.7678,-7.78648 -8.69625,-11.80622 -2.92847,-4.01974 -5.96936,-7.97722 -6.75753,-8.79443 -0.78819,-0.81719 -1.43305,-1.83433 -1.43305,-2.2603 0,-0.42596 -1.18188,-2.03666 -2.6264,-3.57933 -1.44452,-1.54267 -3.10513,-3.62022 -3.69024,-4.61676 -3.11656,-5.30794 -26.10225,-29.58968 -31.13107,-32.88639 l -2.81615,-1.84616 7.92571,-6.99329 c 22.11731,-19.51528 43.69275,-42.20468 43.69275,-45.94861 0,-1.96326 -0.94619,-2.14174 -11.3546,-2.14174 -7.19639,0 -11.35462,0.43376 -11.35462,1.18443 0,3.69436 -38.45642,46.99218 -44.47514,50.07427 -1.7058,0.87351 -3.38233,1.5882 -3.72558,1.5882 -0.34327,0 -0.62412,-11.91025 -0.62412,-26.46722 v -26.46723 l -9.74238,0.32488 -9.74237,0.32487 0.0358,64.65313 c 0.0197,35.55921 0.0606,65.03261 0.0909,65.49642 0.0303,0.46382 4.39828,0.8433 9.70656,0.8433 h 9.65142 z m 184.32425,29.0939 c 0.72215,-3.98783 0.3943,-11.76349 -0.55704,-13.21172 -0.46553,-0.70869 -5.08209,-0.85668 -12.48675,-0.40025 -21.83347,1.3458 -48.66878,1.10439 -49.24794,-0.44305 -0.28932,-0.77303 -0.69146,-10.91846 -0.89365,-22.54543 l -0.36761,-21.1399 23.35464,0.18727 23.35466,0.18727 v -8.22876 -8.22876 l -23.27696,-0.0531 -23.27696,-0.0531 v -19.11484 -19.11484 l 28.6704,0.43141 c 27.44914,0.41303 28.67475,0.34118 28.77243,-1.68661 0.0561,-1.1649 0.18386,-4.9009 0.28387,-8.30222 l 0.18182,-6.18421 h -38.42054 -38.42055 l -0.18513,65.49653 -0.18514,65.49652 41.07024,-1e-4 41.07027,-1.1e-4 z m 67.93931,-54.87615 -0.4738,-57.96827 20.0597,0.20164 c 11.03283,0.11086 20.22313,0.0122 20.42287,-0.21955 0.86812,-1.00671 1.53201,-13.10578 0.78484,-14.30295 -0.6162,-0.98732 -13.57907,-1.24729 -51.2783,-1.02839 l -50.45363,0.29293 -0.33575,7.58972 c -0.2469,5.5818 0.0535,7.62763 1.13547,7.73302 0.80916,0.0788 10.15748,0.2053 20.77405,0.28111 l 19.30285,0.13778 0.25872,56.22011 c 0.1423,30.92106 0.27004,56.85258 0.28386,57.62561 0.0182,1.01596 2.79229,1.4055 10.00903,1.4055 h 9.98388 z m 80.53998,25.79467 c -0.23722,-26.27795 -0.0166,-31.7135 1.30756,-32.21668 3.51435,-1.33545 15.02465,8.30537 27.23198,22.80905 4.97146,5.90664 20.7512,27.01587 21.41711,28.6506 0.2519,0.61842 2.24638,3.7717 4.43215,7.0073 l 3.9741,5.88292 11.63854,0.0202 c 14.14216,0.0245 14.26616,-0.24208 5.75724,-12.38695 -3.2347,-4.61686 -6.93914,-9.91222 -8.2321,-11.76749 -4.38537,-6.29236 -16.49944,-21.73871 -19.9954,-25.49566 -1.91349,-2.05634 -5.0883,-5.76272 -7.05513,-8.2364 -1.96686,-2.47369 -7.25056,-7.78649 -11.74159,-11.80623 -6.98252,-6.24974 -7.91399,-7.50573 -6.42922,-8.66928 4.20949,-3.29879 23.79206,-21.5392 27.46687,-25.58434 2.22693,-2.45134 5.49681,-5.74022 7.26638,-7.30861 5.84507,-5.18059 14.38227,-15.94203 14.38227,-18.12945 0,-1.97126 -0.92268,-2.14976 -11.0708,-2.14182 l -11.07074,0.01 -2.53617,4.39857 c -4.51309,7.82725 -29.81538,36.68233 -39.26355,44.7767 -7.78923,6.67315 -7.7245,6.86658 -7.5255,-22.48803 l 0.17723,-26.14236 -9.63604,-0.32288 c -7.09104,-0.23762 -9.75831,0.0594 -10.09898,1.1244 -0.25462,0.79601 -0.01,15.25594 0.54641,32.13317 0.59002,17.93761 0.58859,44.33025 -0.003,63.52872 -0.55704,18.06356 -0.82281,33.24141 -0.5906,33.72856 0.2322,0.48714 4.81297,0.74014 10.17948,0.5622 l 9.75726,-0.32386 z m 121.80776,-33.32278 -0.1409,-65.49648 -10.07824,-0.31958 -10.07814,-0.31959 0.233,65.53491 c 0.1282,36.0442 0.25594,65.6614 0.28386,65.81601 0.0284,0.15461 4.52176,0.28113 9.98616,0.28115 l 9.9353,4e-5 z m -234.53111,123.71617 -7.57981,-1.11735 4.68549,-8.95556 c 2.57703,-4.92557 5.47698,-9.34522 6.44436,-9.82144 2.5601,-1.26032 18.25885,-3.80832 18.99184,-3.08249 0.34244,0.33912 -0.36111,5.83019 -1.5635,12.20237 l -2.18612,11.58578 -5.60622,0.15302 c -3.08342,0.0841 -9.01714,-0.34979 -13.18604,-0.96433 z M 205.30849,277.39531 c -7.14054,-14.26795 -17.97279,-25.91315 -29.47703,-31.68923 -5.99301,-3.009 -24.48842,-8.06929 -35.19931,-9.63044 -5.39989,-0.78706 -18.06226,-4.77233 -26.30122,-8.2779 -7.91818,-3.36906 -23.754158,-16.01142 -29.012288,-23.16138 -1.383007,-1.88062 -3.001362,-3.98562 -3.596343,-4.6778 -2.225491,-2.58902 -9.10288,-16.93454 -10.716705,-22.35394 -3.914608,-13.14564 -5.809318,-24.93472 -4.376447,-27.23055 2.63854,-4.22767 26.761206,-5.02464 43.127523,-1.42488 28.33073,6.23135 51.74223,24.40754 67.32262,52.26788 8.0584,14.40977 15.83397,23.60231 24.54504,29.01799 5.93789,3.69159 21.05229,9.29329 29.47628,10.9245 l 7.01204,1.35781 0.73336,8.0221 c 0.40335,4.41215 0.56915,11.78849 0.36845,16.39186 l -0.36489,8.36975 -6.81278,2.07069 c -5.23588,1.59142 -21.95151,5.36446 -23.76605,5.36446 -0.15913,0 -1.49215,-2.40342 -2.96225,-5.34092 z m 297.53586,3.59124 c -3.43478,-0.83558 -9.50797,-2.42817 -13.49597,-3.53909 l -7.25092,-2.01985 0.63073,-14.61723 c 0.34689,-8.03948 0.94753,-15.41386 1.33473,-16.38749 0.44593,-1.12136 3.49702,-2.31626 8.32338,-3.25968 8.05422,-1.57439 19.09853,-5.35942 26.39724,-9.04667 7.49175,-3.78478 16.12627,-13.34052 24.14587,-26.72195 4.18237,-6.97868 7.60431,-12.88682 7.60431,-13.12919 0,-0.24236 2.49313,-4.16877 5.54029,-8.72533 6.19462,-9.26309 19.25206,-21.86129 26.55811,-25.62404 2.64225,-1.36082 6.79648,-3.48116 9.2316,-4.71189 7.01333,-3.54455 25.11827,-7.64498 33.75549,-7.64498 7.29602,0 27.60966,2.8556 29.78782,4.18742 2.13602,1.30604 -4.68866,30.59892 -7.36358,31.60605 -0.54752,0.20615 -0.99546,1.06934 -0.99546,1.91822 0,3.92549 -10.51948,18.83556 -19.53914,27.69424 -15.3288,15.05539 -29.18779,21.58957 -62.52597,29.47949 -6.72879,1.59246 -15.15266,4.29632 -18.71968,6.00858 -8.91694,4.28035 -20.285,15.71901 -26.88777,27.05476 -5.95145,10.21758 -5.71394,10.11012 -16.53108,7.47863 z m -231.3903,-26.36038 3.49596,-10.11962 h 10.67661 c 8.46734,0 10.48869,0.30237 9.76858,1.46125 -0.49941,0.80369 -2.95185,4.30614 -5.44987,7.78323 -3.97181,5.52852 -5.40696,6.61522 -11.43466,8.65838 -11.14209,3.77671 -11.07555,3.85011 -7.05662,-7.78324 z m 171.03969,7.17812 c -5.36042,-1.74617 -8.92051,-3.55477 -9.29661,-4.72288 -0.33521,-1.04117 -2.49298,-4.31553 -4.79505,-7.27634 l -4.18557,-5.38332 11.06499,0.32351 11.06499,0.32349 3.2381,8.99522 c 1.78097,4.94737 3.25192,9.37469 3.26879,9.83851 0.0437,1.20228 -0.67411,1.05688 -10.35964,-2.09819 z M 257.01695,241.5109 c -2.49802,-0.20286 -7.14919,-0.65089 -10.33594,-0.99563 l -5.7941,-0.6268 -1.4177,-6.40508 c -5.59281,-25.26814 -15.26299,-39.9318 -32.77181,-49.69455 -25.88754,-14.43467 -32.86873,-19.10109 -40.66725,-27.18315 -11.05364,-11.45555 -18.22589,-25.49835 -22.48338,-44.02109 -2.20698,-9.60167 0.31604,-39.26293 3.61786,-42.532578 1.74535,-1.728353 15.65317,1.100216 26.96364,5.483855 32.29304,12.515933 54.53836,39.894973 61.91817,76.207493 4.09277,20.13853 8.5583,29.92839 18.26471,40.04198 5.27764,5.49903 17.59894,14.23294 23.48509,16.64734 4.15911,1.70597 4.1613,1.66523 -1.13795,21.17553 l -3.43576,12.64953 -5.83186,-0.18902 c -3.20754,-0.10402 -7.8757,-0.35498 -10.37372,-0.55783 z m 45.98618,0.13718 c 0,-0.33531 0.52773,-1.22077 1.17275,-1.9677 0.64499,-0.74692 3.52591,-4.54772 6.40202,-8.4462 2.87611,-3.89848 5.79734,-6.87391 6.49163,-6.61207 0.69428,0.26183 4.95425,1.68057 9.46658,3.15274 4.51235,1.47217 8.05196,3.16638 7.86578,3.76493 -0.18615,0.59854 -2.85616,2.82992 -5.93333,4.95864 -3.07717,2.1287 -5.76517,4.29538 -5.97334,4.81485 -0.4082,1.01861 -19.49209,1.34642 -19.49209,0.33481 z m 102.75926,-0.42102 c -6.88551,-0.57789 -8.74951,-1.24722 -13.94112,-5.00605 -4.80501,-3.47893 -5.73399,-4.6479 -4.68667,-5.89754 0.71841,-0.8572 2.02619,-1.55855 2.90618,-1.55855 0.87999,0 4.70925,-1.03724 8.50946,-2.30496 3.80022,-1.26774 6.98453,-2.15321 7.07626,-1.96771 0.0918,0.18549 2.24896,2.86716 4.79381,5.95927 4.37873,5.32033 7.26442,9.75751 7.26442,11.1701 0,0.34987 -0.89417,0.55431 -1.98705,0.45432 -1.09289,-0.1 -5.56377,-0.482 -9.93529,-0.84888 z m 41.7962,-2.47036 c -1.6956,-4.77758 -4.67563,-16.34318 -5.94581,-23.07583 -0.96072,-5.0924 -0.94202,-5.13566 2.90637,-6.72795 10.96088,-4.53514 28.93269,-20.36112 33.22885,-29.26132 1.44961,-3.00311 3.01269,-6.21916 3.47352,-7.14679 0.89557,-1.80277 2.53897,-8.75539 4.65106,-19.67703 3.81447,-19.72448 10.55095,-37.19544 18.58776,-48.20706 6.33578,-8.680965 23.46026,-23.192487 27.36856,-23.192487 0.81601,0 1.65397,-0.429521 1.86214,-0.954494 1.35654,-3.421004 38.44267,-12.962117 40.90515,-10.523628 1.51183,1.497109 4.32406,15.630348 4.32406,21.731151 0,7.180241 -3.01485,23.839628 -5.74034,31.719818 -4.35899,12.60313 -12.69447,26.0295 -22.36062,36.01735 -5.55086,5.73559 -16.4442,14.21079 -18.26544,14.21079 -0.5747,0 -1.64193,0.71236 -2.37163,1.58303 -0.7297,0.87066 -2.96382,2.41116 -4.96475,3.42331 -3.70456,1.87394 -4.71531,2.49929 -15.94597,9.86572 -7.27034,4.76876 -16.08135,15.34969 -19.26842,23.13898 -1.18786,2.90314 -2.5782,6.2904 -3.08967,7.52724 -0.51146,1.23685 -1.19798,3.51376 -1.5256,5.05981 -2.03042,9.58155 -3.86132,14.94822 -5.38855,15.79457 -0.96127,0.53272 -8.34962,1.31367 -16.41855,1.73546 l -14.67078,0.7669 z m -96.58221,-5.87687 c -3.90315,-1.30923 -7.09663,-2.71558 -7.09663,-3.12522 0,-0.40963 3.87352,-3.34735 8.60782,-6.52824 l 8.60783,-5.78346 7.85635,5.76744 c 4.32101,3.17209 7.84721,6.09903 7.836,6.50431 -0.0226,0.81849 -15.78351,5.92075 -17.57928,5.69091 -0.6245,-0.08 -4.32894,-1.21651 -8.23209,-2.52574 z m -39.45729,-12.79938 c -1.249,-0.30404 -7.70943,-2.80413 -14.35649,-5.55577 l -12.08556,-5.00297 0.5783,-15.95855 c 0.4635,-12.79027 0.19524,-17.40952 -1.35124,-23.26715 -1.66214,-6.29575 -5.22023,-13.88225 -7.38286,-15.74163 -0.35965,-0.30921 -1.58672,-2.01209 -2.72684,-3.78417 -1.14011,-1.77209 -5.37698,-6.65995 -9.41525,-10.86192 -25.90111,-26.95106 -34.29835,-45.66984 -33.02564,-73.619484 0.42453,-9.323003 1.30578,-14.544051 3.57904,-21.204345 3.24231,-9.499523 10.0914,-23.396088 12.51117,-25.384761 1.75689,-1.443879 17.46993,5.886414 22.88751,10.677266 17.77672,15.720186 25.30077,26.305837 32.89082,46.274306 4.79464,12.61415 5.64907,22.600819 4.05131,47.352748 -1.28937,19.97474 -1.24116,22.93429 0.49762,30.55036 2.82493,12.37352 8.60392,22.51348 19.01257,33.35991 3.74732,3.90493 4.3699,5.19492 3.7285,7.72554 -0.42347,1.67084 -1.38342,3.6926 -2.13323,4.49283 -0.74979,0.80021 -4.13782,5.7989 -7.52894,11.1082 -3.39112,5.30927 -6.45688,9.59456 -6.81278,9.52281 -0.3559,-0.0717 -1.66899,-0.37919 -2.91801,-0.68322 z m 93.5645,-1.71614 c -3.74007,-5.21559 -14.64955,-23.14808 -14.64009,-24.06467 0.005,-0.52436 1.69197,-2.72432 3.7479,-4.88879 6.06269,-6.38283 12.78342,-15.81994 16.46762,-23.12346 3.4941,-6.92673 6.09382,-20.20051 5.27089,-26.91244 -3.79515,-30.9535 -4.26755,-38.78517 -2.91646,-48.349221 0.76509,-5.415761 2.17904,-12.185168 3.14215,-15.043094 1.98924,-5.902943 8.3016,-19.527231 9.44037,-20.375649 0.41504,-0.309211 2.35258,-2.888679 4.30569,-5.732157 4.24858,-6.185426 13.6772,-14.905299 22.02374,-20.368229 8.43631,-5.52168 20.1376,-11.213426 21.42861,-10.423309 2.14337,1.311784 7.25961,11.185035 10.39937,20.068621 6.78436,19.195467 6.62942,38.826165 -0.47157,59.744565 -3.26559,9.619923 -7.17045,18.455843 -8.69587,19.677033 -0.38624,0.30921 -2.21707,2.77211 -4.06851,5.4731 -1.85143,2.70099 -5.93766,7.81308 -9.08049,11.3602 -7.78015,8.78097 -13.56938,15.87467 -14.11831,17.29956 -0.25073,0.65078 -1.34261,2.12578 -2.42642,3.27778 -6.00231,6.37999 -10.07628,27.37738 -8.39969,43.29247 l 1.06279,10.08865 -4.54184,1.96168 c -8.92747,3.85589 -20.4862,8.28594 -23.27696,8.9212 -2.1152,0.48151 -3.30103,10e-4 -4.65292,-1.88384 z m -56.37814,-13.88432 c -6.40116,-5.2943 -11.63848,-10.3799 -11.63848,-11.30134 0,-0.92143 1.48816,-5.30852 3.30703,-9.74909 6.70998,-16.38177 8.44308,-25.93931 6.81656,-37.59142 -1.15998,-8.30999 -1.82466,-10.29561 -7.6211,-22.76702 -14.02752,-30.181087 -14.4167,-31.579281 -14.39721,-51.722506 0.0137,-14.148698 0.37906,-17.41855 2.7641,-24.736845 1.51156,-4.638159 3.09356,-8.686006 3.51551,-8.995217 0.42196,-0.309211 1.10979,-1.650172 1.52853,-2.979923 2.50365,-7.95076 23.73447,-33.0009416 27.96932,-33.0009416 1.11114,0 5.414,3.6298724 9.56193,8.0663831 7.87301,8.4207455 14.1297,18.3423575 17.82011,28.2583585 1.19546,3.212179 2.62324,6.852296 3.17288,8.089139 3.58777,8.073747 4.63995,36.300084 1.80229,48.3493 -2.07192,8.797712 -5.35062,17.981672 -9.53323,26.703582 -5.03063,10.49026 -8.08152,19.76055 -8.85262,26.89926 -0.72459,6.70801 1.46682,24.1532 3.16456,25.19223 0.54637,0.3344 0.99342,1.37879 0.99342,2.32088 0,0.94209 1.5666,5.24746 3.48133,9.56752 2.94209,6.63797 3.24988,8.13478 1.98706,9.66313 -1.31179,1.58764 -23.39258,19.43549 -23.97799,19.38137 -0.12403,-0.0114 -5.46283,-4.35254 -11.864,-9.64685 z"
       id="path1" />
  </g>
</svg>
